<svg xmlns="http://www.w3.org/2000/svg" viewBox="0 0 200 200" role="img" aria-label="Minotaure">
  <defs>
    <radialGradient id="g" cx="38%" cy="30%" r="80%">
      <stop offset="0" stop-color="#BBA3FF"/><stop offset=".55" stop-color="#8A5CFF"/><stop offset="1" stop-color="#4E2BC0"/>
    </radialGradient>
    <filter id="fur" x="-20%" y="-20%" width="140%" height="140%">
      <feTurbulence type="fractalNoise" baseFrequency=".9" numOctaves="2" seed="7" result="n"/>
      <feDisplacementMap in="SourceGraphic" in2="n" scale="7" xChannelSelector="R" yChannelSelector="G"/>
    </filter>
    <filter id="doux"><feGaussianBlur stdDeviation="5"/></filter>
  </defs>
  <path d="M146 140 C166 142 172 160 166 176" stroke="#6A42DD" stroke-width="7" stroke-linecap="round" fill="none"/>
  <circle cx="165" cy="180" r="9" fill="#5A33D6" filter="url(#fur)"/>
  <ellipse cx="62" cy="170" rx="18" ry="9" fill="#3B2463"/>
  <ellipse cx="138" cy="170" rx="18" ry="9" fill="#3B2463"/>
  <ellipse cx="100" cy="130" rx="52" ry="45" fill="url(#g)" filter="url(#fur)"/>
  <ellipse cx="100" cy="146" rx="30" ry="22" fill="#D9C9FF" opacity=".85" filter="url(#doux)"/>
  <ellipse cx="85" cy="173" rx="12" ry="8" fill="#3B2463"/>
  <ellipse cx="115" cy="173" rx="12" ry="8" fill="#3B2463"/>
  <circle cx="100" cy="80" r="37" fill="url(#g)" filter="url(#fur)"/>
  <ellipse cx="88" cy="68" rx="14" ry="9" fill="#FFFFFF" opacity=".3" filter="url(#doux)"/>
  <path d="M74 66 C62 58 56 46 60 32" stroke="#FFF0D2" stroke-width="8" stroke-linecap="round" fill="none"/>
  <path d="M126 66 C138 58 144 46 140 32" stroke="#FFF0D2" stroke-width="8" stroke-linecap="round" fill="none"/>
  <ellipse cx="60" cy="80" rx="18" ry="8" fill="#7448E6" transform="rotate(25 60 80)"/>
  <ellipse cx="60" cy="80" rx="11" ry="4" fill="#FF9FC8" transform="rotate(25 60 80)"/>
  <ellipse cx="140" cy="80" rx="18" ry="8" fill="#7448E6" transform="rotate(-25 140 80)"/>
  <ellipse cx="140" cy="80" rx="11" ry="4" fill="#FF9FC8" transform="rotate(-25 140 80)"/>
  <ellipse cx="100" cy="50" rx="17" ry="9" fill="#5A33D6" filter="url(#fur)"/>
  <path d="M88 46 C82 38 84 32 92 30 C94 38 92 42 88 46Z" fill="#3FBF5C"/>
</svg>
